<?xml version="1.0" encoding="UTF-8" standalone="no"?><svg xmlns="http://www.w3.org/2000/svg" xmlns:xlink="http://www.w3.org/1999/xlink" contentStyleType="text/css" height="688.5417px" preserveAspectRatio="none" style="width:905px;height:688px;" version="1.1" viewBox="0 0 905 688" width="905.2083px" zoomAndPan="magnify"><defs><linearGradient id="g19nj8u5dkxycb0" x1="50%" x2="50%" y1="0%" y2="100%"><stop offset="0%" stop-color="#FFFFFF"/><stop offset="100%" stop-color="#CCCCCC"/></linearGradient><linearGradient id="g19nj8u5dkxycb1" x1="50%" x2="50%" y1="0%" y2="100%"><stop offset="0%" stop-color="#F08E41"/><stop offset="100%" stop-color="#EC7211"/></linearGradient></defs><g><rect fill="url(#g19nj8u5dkxycb0)" height="45.0846" id="_title" rx="4.1667" ry="4.1667" style="stroke:#FFFFFF;stroke-width:1.0416666666666667;" width="392.7083" x="248.9583" y="5.2083"/><text fill="#4E5D6C" font-family="&quot;Verdana&quot;" font-size="20.8333" font-weight="bold" lengthAdjust="spacing" textLength="371.875" x="259.375" y="34.963">H4x2 2.0 - Component Diagram</text><!--MD5=[42591781c74864aa6bd8b9830e23a81c]
cluster Docker--><g id="cluster_Docker"><path d="M607.2917,214.8763 L666.6667,214.8763 A6.25,6.25 0 0 1 670.8333,219.043 L678.125,246.0938 L893.75,246.0938 A4.1667,4.1667 0 0 1 897.9167,250.2604 L897.9167,484.668 A4.1667,4.1667 0 0 1 893.75,488.8346 L607.2917,488.8346 A4.1667,4.1667 0 0 1 603.125,484.668 L603.125,219.043 A4.1667,4.1667 0 0 1 607.2917,214.8763 " fill="#FFFFFF" style="stroke:#4E5D6C;stroke-width:2.0833333333333335;"/><line style="stroke:#4E5D6C;stroke-width:2.0833333333333335;" x1="603.125" x2="678.125" y1="246.0938" y2="246.0938"/><text fill="#4E5D6C" font-family="&quot;Verdana&quot;" font-size="12.5" font-weight="bold" lengthAdjust="spacing" textLength="51.0417" x="612.5" y="233.7708">Docker</text></g><!--MD5=[8f4a659eee4b538ec240045c53921dab]
cluster ORK SQlite--><g id="cluster_ORK SQlite"><path d="M745.8333,341.9596 C745.8333,331.543 809.375,331.543 809.375,331.543 C809.375,331.543 872.9167,331.543 872.9167,341.9596 L872.9167,453.418 C872.9167,463.8346 809.375,463.8346 809.375,463.8346 C809.375,463.8346 745.8333,463.8346 745.8333,453.418 L745.8333,341.9596 " fill="#FFFFFF" style="stroke:#4E5D6C;stroke-width:1.0416666666666667;"/><path d="M745.8333,341.9596 C745.8333,352.3763 809.375,352.3763 809.375,352.3763 C809.375,352.3763 872.9167,352.3763 872.9167,341.9596 " fill="none" style="stroke:#4E5D6C;stroke-width:1.0416666666666667;"/><text fill="#4E5D6C" font-family="&quot;Verdana&quot;" font-size="12.5" font-weight="bold" lengthAdjust="spacing" textLength="78.125" x="770.3125" y="371.2708">ORK SQlite</text></g><!--MD5=[280c8eae03c0522eb380bb2709503172]
cluster LT Server--><g id="cluster_LT Server"><polygon fill="#FFFFFF" points="490.625,534.668,501.0417,524.2513,746.875,524.2513,746.875,635.7096,736.4583,646.1263,490.625,646.1263,490.625,534.668" style="stroke:#4E5D6C;stroke-width:1.0416666666666667;"/><line style="stroke:#4E5D6C;stroke-width:1.0416666666666667;" x1="736.4583" x2="746.875" y1="534.668" y2="524.2513"/><line style="stroke:#4E5D6C;stroke-width:1.0416666666666667;" x1="490.625" x2="736.4583" y1="534.668" y2="534.668"/><line style="stroke:#4E5D6C;stroke-width:1.0416666666666667;" x1="736.4583" x2="736.4583" y1="534.668" y2="646.1263"/><text fill="#ABB6C2" font-family="&quot;Verdana&quot;" font-size="12.5" font-weight="bold" lengthAdjust="spacing" textLength="68.75" x="580.2083" y="554.6041">LT Server</text></g><!--MD5=[0456938ae9c5034085d91ff3a1927fab]
cluster BC Simulator--><g id="cluster_BC Simulator"><polygon fill="#FFFFFF" points="241.6667,352.3763,252.0833,341.9596,465.625,341.9596,465.625,660.7096,455.2083,671.1263,241.6667,671.1263,241.6667,352.3763" style="stroke:#4E5D6C;stroke-width:1.0416666666666667;"/><line style="stroke:#4E5D6C;stroke-width:1.0416666666666667;" x1="455.2083" x2="465.625" y1="352.3763" y2="341.9596"/><line style="stroke:#4E5D6C;stroke-width:1.0416666666666667;" x1="241.6667" x2="455.2083" y1="352.3763" y2="352.3763"/><line style="stroke:#4E5D6C;stroke-width:1.0416666666666667;" x1="455.2083" x2="455.2083" y1="352.3763" y2="671.1263"/><text fill="#ABB6C2" font-family="&quot;Verdana&quot;" font-size="12.5" font-weight="bold" lengthAdjust="spacing" textLength="93.75" x="302.6042" y="372.3124">BC Simulator</text></g><!--MD5=[9cbd80d7b93de6a797ecc7fe90df9e1f]
cluster BC Simulator SQL--><g id="cluster_BC Simulator SQL"><path d="M266.6667,524.2513 C266.6667,513.8346 343.2292,513.8346 343.2292,513.8346 C343.2292,513.8346 419.7917,513.8346 419.7917,524.2513 L419.7917,635.7096 C419.7917,646.1263 343.2292,646.1263 343.2292,646.1263 C343.2292,646.1263 266.6667,646.1263 266.6667,635.7096 L266.6667,524.2513 " fill="#FFFFFF" style="stroke:#4E5D6C;stroke-width:1.0416666666666667;"/><path d="M266.6667,524.2513 C266.6667,534.668 343.2292,534.668 343.2292,534.668 C343.2292,534.668 419.7917,534.668 419.7917,524.2513 " fill="none" style="stroke:#4E5D6C;stroke-width:1.0416666666666667;"/><text fill="#4E5D6C" font-family="&quot;Verdana&quot;" font-size="12.5" font-weight="bold" lengthAdjust="spacing" textLength="126.0417" x="280.2083" y="553.5624">BC Simulator SQL</text></g><!--MD5=[354434fd797e55d67bedb6bbd300fabf]
cluster Vendor--><g id="cluster_Vendor"><polygon fill="#FFFFFF" points="16.6667,220.0846,27.0833,209.668,216.6667,209.668,216.6667,478.418,206.25,488.8346,16.6667,488.8346,16.6667,220.0846" style="stroke:#4E5D6C;stroke-width:1.0416666666666667;"/><line style="stroke:#4E5D6C;stroke-width:1.0416666666666667;" x1="206.25" x2="216.6667" y1="220.0846" y2="209.668"/><line style="stroke:#4E5D6C;stroke-width:1.0416666666666667;" x1="16.6667" x2="206.25" y1="220.0846" y2="220.0846"/><line style="stroke:#4E5D6C;stroke-width:1.0416666666666667;" x1="206.25" x2="206.25" y1="220.0846" y2="488.8346"/><text fill="#ABB6C2" font-family="&quot;Verdana&quot;" font-size="12.5" font-weight="bold" lengthAdjust="spacing" textLength="53.125" x="85.9375" y="240.0208">Vendor</text></g><!--MD5=[18a6e4be6fbd9ccf79db7dd422331565]
cluster Vendor SQL--><g id="cluster_Vendor SQL"><path d="M41.6667,341.9596 C41.6667,331.543 116.6667,331.543 116.6667,331.543 C116.6667,331.543 191.6667,331.543 191.6667,341.9596 L191.6667,453.418 C191.6667,463.8346 116.6667,463.8346 116.6667,463.8346 C116.6667,463.8346 41.6667,463.8346 41.6667,453.418 L41.6667,341.9596 " fill="#FFFFFF" style="stroke:#4E5D6C;stroke-width:1.0416666666666667;"/><path d="M41.6667,341.9596 C41.6667,352.3763 116.6667,352.3763 116.6667,352.3763 C116.6667,352.3763 191.6667,352.3763 191.6667,341.9596 " fill="none" style="stroke:#4E5D6C;stroke-width:1.0416666666666667;"/><text fill="#4E5D6C" font-family="&quot;Verdana&quot;" font-size="12.5" font-weight="bold" lengthAdjust="spacing" textLength="85.4167" x="73.9583" y="371.2708">Vendor SQL</text></g><!--MD5=[406b65fecc21e832f7a9b6ebadc6dce1]
cluster Client--><g id="cluster_Client"><polygon fill="#FFFFFF" points="281.25,73.2096,291.6667,62.793,418.75,62.793,418.75,174.2513,408.3333,184.668,281.25,184.668,281.25,73.2096" style="stroke:#4E5D6C;stroke-width:1.0416666666666667;"/><line style="stroke:#4E5D6C;stroke-width:1.0416666666666667;" x1="408.3333" x2="418.75" y1="73.2096" y2="62.793"/><line style="stroke:#4E5D6C;stroke-width:1.0416666666666667;" x1="281.25" x2="408.3333" y1="73.2096" y2="73.2096"/><line style="stroke:#4E5D6C;stroke-width:1.0416666666666667;" x1="408.3333" x2="408.3333" y1="73.2096" y2="184.668"/><text fill="#ABB6C2" font-family="&quot;Verdana&quot;" font-size="12.5" font-weight="bold" lengthAdjust="spacing" textLength="42.7083" x="324.4792" y="93.1458">Client</text></g><!--MD5=[eb7a7b98a14a4c33f042003687ae1f8f]
entity ORK--><g id="elem_ORK"><rect fill="url(#g19nj8u5dkxycb1)" height="56.2174" rx="4.1667" ry="4.1667" style="stroke:#EC7211;stroke-width:1.0416666666666667;" width="77.0833" x="634.375" y="258.6263"/><rect fill="url(#g19nj8u5dkxycb1)" height="10.4167" style="stroke:#EC7211;stroke-width:1.0416666666666667;" width="15.625" x="690.625" y="263.8346"/><rect fill="url(#g19nj8u5dkxycb1)" height="2.0833" style="stroke:#EC7211;stroke-width:1.0416666666666667;" width="4.1667" x="688.5417" y="265.918"/><rect fill="url(#g19nj8u5dkxycb1)" height="2.0833" style="stroke:#EC7211;stroke-width:1.0416666666666667;" width="4.1667" x="688.5417" y="270.0846"/><text fill="#FFFFFF" font-family="&quot;Verdana&quot;" font-size="12.5" lengthAdjust="spacing" textLength="25" x="655.2083" y="296.2708">ORK</text></g><!--MD5=[d19b759a6954dfc739986b280c211818]
entity OrkInterface--><g id="elem_OrkInterface"><ellipse cx="757.2917" cy="286.7513" fill="#A7280E" rx="8.3333" ry="8.3333" style="stroke:#D13212;stroke-width:1.0416666666666667;"/><text fill="#4E5D6C" font-family="&quot;Verdana&quot;" font-size="12.5" lengthAdjust="spacing" textLength="80.2083" x="717.1875" y="321.2708">OrkInterface</text></g><!--MD5=[e4b66531d47a5049cff93ea38632383b]
entity LT Client--><g id="elem_LT Client"><rect fill="url(#g19nj8u5dkxycb1)" height="56.2174" rx="4.1667" ry="4.1667" style="stroke:#EC7211;stroke-width:1.0416666666666667;" width="106.25" x="619.7917" y="390.918"/><rect fill="url(#g19nj8u5dkxycb1)" height="10.4167" style="stroke:#EC7211;stroke-width:1.0416666666666667;" width="15.625" x="705.2083" y="396.1263"/><rect fill="url(#g19nj8u5dkxycb1)" height="2.0833" style="stroke:#EC7211;stroke-width:1.0416666666666667;" width="4.1667" x="703.125" y="398.2096"/><rect fill="url(#g19nj8u5dkxycb1)" height="2.0833" style="stroke:#EC7211;stroke-width:1.0416666666666667;" width="4.1667" x="703.125" y="402.3763"/><text fill="#FFFFFF" font-family="&quot;Verdana&quot;" font-size="12.5" lengthAdjust="spacing" textLength="54.1667" x="640.625" y="428.5624">LT Client</text></g><!--MD5=[8c398adf8eb74f343b239aaa6617ff5f]
entity ORKdb--><g id="elem_ORKdb"><rect fill="url(#g19nj8u5dkxycb1)" height="56.2174" rx="4.1667" ry="4.1667" style="stroke:#EC7211;stroke-width:1.0416666666666667;" width="93.75" x="762.5" y="390.918"/><rect fill="url(#g19nj8u5dkxycb1)" height="10.4167" style="stroke:#EC7211;stroke-width:1.0416666666666667;" width="15.625" x="835.4167" y="396.1263"/><rect fill="url(#g19nj8u5dkxycb1)" height="2.0833" style="stroke:#EC7211;stroke-width:1.0416666666666667;" width="4.1667" x="833.3333" y="398.2096"/><rect fill="url(#g19nj8u5dkxycb1)" height="2.0833" style="stroke:#EC7211;stroke-width:1.0416666666666667;" width="4.1667" x="833.3333" y="402.3763"/><text fill="#FFFFFF" font-family="&quot;Verdana&quot;" font-size="12.5" lengthAdjust="spacing" textLength="41.6667" x="783.3333" y="428.5624">ORKdb</text></g><!--MD5=[1fb25165e31d08c10665e6980999b281]
entity LT Server--><g id="elem_LT Server"><rect fill="url(#g19nj8u5dkxycb1)" height="56.2174" rx="4.1667" ry="4.1667" style="stroke:#EC7211;stroke-width:1.0416666666666667;" width="111.4583" x="563.0208" y="573.2096"/><rect fill="url(#g19nj8u5dkxycb1)" height="10.4167" style="stroke:#EC7211;stroke-width:1.0416666666666667;" width="15.625" x="653.6458" y="578.418"/><rect fill="url(#g19nj8u5dkxycb1)" height="2.0833" style="stroke:#EC7211;stroke-width:1.0416666666666667;" width="4.1667" x="651.5625" y="580.5013"/><rect fill="url(#g19nj8u5dkxycb1)" height="2.0833" style="stroke:#EC7211;stroke-width:1.0416666666666667;" width="4.1667" x="651.5625" y="584.668"/><text fill="#FFFFFF" font-family="&quot;Verdana&quot;" font-size="12.5" lengthAdjust="spacing" textLength="59.375" x="583.8542" y="610.8541">LT Server</text></g><!--MD5=[5f192a9c10f166b170302bd318832683]
entity LTInterface--><g id="elem_LTInterface"><ellipse cx="720.8333" cy="601.3346" fill="#A7280E" rx="8.3333" ry="8.3333" style="stroke:#D13212;stroke-width:1.0416666666666667;"/><text fill="#4E5D6C" font-family="&quot;Verdana&quot;" font-size="12.5" lengthAdjust="spacing" textLength="71.875" x="684.8958" y="635.8541">LTInterface</text></g><!--MD5=[37ffc94a15ca37c8c12b6b0c8c7d5684]
entity LTInterface2--><g id="elem_LTInterface2"><ellipse cx="516.6667" cy="601.3346" fill="#A7280E" rx="8.3333" ry="8.3333" style="stroke:#D13212;stroke-width:1.0416666666666667;"/><text fill="#4E5D6C" font-family="&quot;Verdana&quot;" font-size="12.5" lengthAdjust="spacing" textLength="80.2083" x="476.5625" y="635.8541">LTInterface2</text></g><!--MD5=[e999bb269f538b02f2474fed934351aa]
entity BC Simulator--><g id="elem_BC Simulator"><rect fill="url(#g19nj8u5dkxycb1)" height="56.2174" rx="4.1667" ry="4.1667" style="stroke:#EC7211;stroke-width:1.0416666666666667;" width="134.375" x="258.8542" y="390.918"/><rect fill="url(#g19nj8u5dkxycb1)" height="10.4167" style="stroke:#EC7211;stroke-width:1.0416666666666667;" width="15.625" x="372.3958" y="396.1263"/><rect fill="url(#g19nj8u5dkxycb1)" height="2.0833" style="stroke:#EC7211;stroke-width:1.0416666666666667;" width="4.1667" x="370.3125" y="398.2096"/><rect fill="url(#g19nj8u5dkxycb1)" height="2.0833" style="stroke:#EC7211;stroke-width:1.0416666666666667;" width="4.1667" x="370.3125" y="402.3763"/><text fill="#FFFFFF" font-family="&quot;Verdana&quot;" font-size="12.5" lengthAdjust="spacing" textLength="82.2917" x="279.6875" y="428.5624">BC Simulator</text></g><!--MD5=[311810dfabf7803e319950b9fe3c458e]
entity SimInterface--><g id="elem_SimInterface"><ellipse cx="439.5833" cy="419.043" fill="#A7280E" rx="8.3333" ry="8.3333" style="stroke:#D13212;stroke-width:1.0416666666666667;"/><text fill="#4E5D6C" font-family="&quot;Verdana&quot;" font-size="12.5" lengthAdjust="spacing" textLength="81.25" x="398.9583" y="453.5624">SimInterface</text></g><!--MD5=[1cf1d52701de40d62e002fc611f86ee9]
entity SimDB--><g id="elem_SimDB"><rect fill="url(#g19nj8u5dkxycb1)" height="56.2174" rx="4.1667" ry="4.1667" style="stroke:#EC7211;stroke-width:1.0416666666666667;" width="92.7083" x="282.8125" y="573.2096"/><rect fill="url(#g19nj8u5dkxycb1)" height="10.4167" style="stroke:#EC7211;stroke-width:1.0416666666666667;" width="15.625" x="354.6875" y="578.418"/><rect fill="url(#g19nj8u5dkxycb1)" height="2.0833" style="stroke:#EC7211;stroke-width:1.0416666666666667;" width="4.1667" x="352.6042" y="580.5013"/><rect fill="url(#g19nj8u5dkxycb1)" height="2.0833" style="stroke:#EC7211;stroke-width:1.0416666666666667;" width="4.1667" x="352.6042" y="584.668"/><text fill="#FFFFFF" font-family="&quot;Verdana&quot;" font-size="12.5" lengthAdjust="spacing" textLength="40.625" x="303.6458" y="610.8541">SimDB</text></g><!--MD5=[267c1c121543e29b214c7e2be8e6d7c3]
entity Website--><g id="elem_Website"><rect fill="url(#g19nj8u5dkxycb1)" height="56.2174" rx="4.1667" ry="4.1667" style="stroke:#EC7211;stroke-width:1.0416666666666667;" width="104.1667" x="40.625" y="258.6263"/><rect fill="url(#g19nj8u5dkxycb1)" height="10.4167" style="stroke:#EC7211;stroke-width:1.0416666666666667;" width="15.625" x="123.9583" y="263.8346"/><rect fill="url(#g19nj8u5dkxycb1)" height="2.0833" style="stroke:#EC7211;stroke-width:1.0416666666666667;" width="4.1667" x="121.875" y="265.918"/><rect fill="url(#g19nj8u5dkxycb1)" height="2.0833" style="stroke:#EC7211;stroke-width:1.0416666666666667;" width="4.1667" x="121.875" y="270.0846"/><text fill="#FFFFFF" font-family="&quot;Verdana&quot;" font-size="12.5" lengthAdjust="spacing" textLength="52.0833" x="61.4583" y="296.2708">Website</text></g><!--MD5=[96f7e1299d4a43069e6ed32352fcac20]
entity HTTP--><g id="elem_HTTP"><ellipse cx="190.625" cy="286.7513" fill="#A7280E" rx="8.3333" ry="8.3333" style="stroke:#D13212;stroke-width:1.0416666666666667;"/><text fill="#4E5D6C" font-family="&quot;Verdana&quot;" font-size="12.5" lengthAdjust="spacing" textLength="32.2917" x="174.4792" y="321.2708">HTTP</text></g><!--MD5=[4b2cb6088e4c746f5999c8caa4e32af7]
entity VendorDB--><g id="elem_VendorDB"><rect fill="url(#g19nj8u5dkxycb1)" height="56.2174" rx="4.1667" ry="4.1667" style="stroke:#EC7211;stroke-width:1.0416666666666667;" width="116.6667" x="58.3333" y="390.918"/><rect fill="url(#g19nj8u5dkxycb1)" height="10.4167" style="stroke:#EC7211;stroke-width:1.0416666666666667;" width="15.625" x="154.1667" y="396.1263"/><rect fill="url(#g19nj8u5dkxycb1)" height="2.0833" style="stroke:#EC7211;stroke-width:1.0416666666666667;" width="4.1667" x="152.0833" y="398.2096"/><rect fill="url(#g19nj8u5dkxycb1)" height="2.0833" style="stroke:#EC7211;stroke-width:1.0416666666666667;" width="4.1667" x="152.0833" y="402.3763"/><text fill="#FFFFFF" font-family="&quot;Verdana&quot;" font-size="12.5" lengthAdjust="spacing" textLength="64.5833" x="79.1667" y="428.5624">VendorDB</text></g><!--MD5=[e9dede37b31fdda9664526f66258b036]
entity Browser--><g id="elem_Browser"><rect fill="url(#g19nj8u5dkxycb1)" height="56.2174" rx="4.1667" ry="4.1667" style="stroke:#EC7211;stroke-width:1.0416666666666667;" width="104.1667" x="297.9167" y="111.7513"/><rect fill="url(#g19nj8u5dkxycb1)" height="10.4167" style="stroke:#EC7211;stroke-width:1.0416666666666667;" width="15.625" x="381.25" y="116.9596"/><rect fill="url(#g19nj8u5dkxycb1)" height="2.0833" style="stroke:#EC7211;stroke-width:1.0416666666666667;" width="4.1667" x="379.1667" y="119.043"/><rect fill="url(#g19nj8u5dkxycb1)" height="2.0833" style="stroke:#EC7211;stroke-width:1.0416666666666667;" width="4.1667" x="379.1667" y="123.2096"/><text fill="#FFFFFF" font-family="&quot;Verdana&quot;" font-size="12.5" lengthAdjust="spacing" textLength="52.0833" x="318.75" y="149.3958">Browser</text></g><!--MD5=[32cfa1a2f48334eb4456d9ea308f4fbf]
link ORK to OrkInterface--><g id="link_ORK_OrkInterface"><path d="M711.4792,286.7513 C721.7396,286.7513 732,286.7513 742.2604,286.7513 " fill="none" id="ORK-to-OrkInterface" style="stroke:#EC7211;stroke-width:3.125;"/><polygon fill="#EC7211" points="747.625,286.7513,738.25,282.5846,742.4167,286.7513,738.25,290.918,747.625,286.7513" style="stroke:#EC7211;stroke-width:3.125;"/></g><!--MD5=[3ebcd83e824add30d8149998b15c362d]
link LT Server to LTInterface--><g id="link_LT Server_LTInterface"><path d="M674.5729,601.3346 C685.0417,601.3346 695.5,601.3346 705.9688,601.3346 " fill="none" id="LT Server-to-LTInterface" style="stroke:#EC7211;stroke-width:3.125;"/><polygon fill="#EC7211" points="711.4375,601.3346,702.0625,597.168,706.2292,601.3346,702.0625,605.5013,711.4375,601.3346" style="stroke:#EC7211;stroke-width:3.125;"/></g><!--MD5=[0d1d478abdaf5a2981b183da4ca1d5b1]
reverse link LTInterface2 to LT Server--><g id="link_LTInterface2_LT Server"><path d="M531.6563,601.3346 C542.0104,601.3346 552.375,601.3346 562.7396,601.3346 " fill="none" id="LTInterface2-backto-LT Server" style="stroke:#EC7211;stroke-width:3.125;"/><polygon fill="#EC7211" points="526.2396,601.3346,535.6146,605.5013,531.4479,601.3346,535.6146,597.168,526.2396,601.3346" style="stroke:#EC7211;stroke-width:3.125;"/></g><!--MD5=[9251cbae45d8e3891cbfeaf0e8551f55]
link BC Simulator to SimInterface--><g id="link_BC Simulator_SimInterface"><path d="M393.4583,419.043 C403.7917,419.043 414.1146,419.043 424.4479,419.043 " fill="none" id="BC Simulator-to-SimInterface" style="stroke:#EC7211;stroke-width:3.125;"/><polygon fill="#EC7211" points="429.8542,419.043,420.4792,414.8763,424.6458,419.043,420.4792,423.2096,429.8542,419.043" style="stroke:#EC7211;stroke-width:3.125;"/></g><!--MD5=[8a5ecb3d959917ba2b04b4f0f68d0089]
link Website to HTTP--><g id="link_Website_HTTP"><path d="M145.1042,286.7513 C155.3021,286.7513 165.5,286.7513 175.6979,286.7513 " fill="none" id="Website-to-HTTP" style="stroke:#EC7211;stroke-width:3.125;"/><polygon fill="#EC7211" points="181.0208,286.7513,171.6458,282.5846,175.8125,286.7513,171.6458,290.918,181.0208,286.7513" style="stroke:#EC7211;stroke-width:3.125;"/></g><!--MD5=[16e2cfd8564ee3f0f65f6f82effd7ee9]
link ORK to ORKdb--><g id="link_ORK_ORKdb"><path d="M711.7083,307.1055 C717.8333,309.8763 724.1458,312.5638 730.2083,314.8763 C742.3854,319.5326 748.2188,314.9909 758.3333,323.2096 C779.6563,340.543 793.3229,369.2201 801.0938,390.5013 " fill="none" id="ORK-ORKdb" style="stroke:#EC7211;stroke-width:3.125;"/></g><!--MD5=[28c1b6c1dcd466ec5055d6821178064b]
link ORK to LT Client--><g id="link_ORK_LT Client"><path d="M672.9167,315.0846 C672.9167,337.3138 672.9167,368.5326 672.9167,390.7409 " fill="none" id="ORK-LT Client" style="stroke:#EC7211;stroke-width:3.125;"/></g><!--MD5=[7b8c68e2b3bec9d25f4d447ba11381c9]
link LT Client to LTInterface--><g id="link_LT Client_LTInterface"><path d="M680.1979,447.4492 C690.5938,486.5742 709.3229,557.0013 717.1979,586.6055 " fill="none" id="LT Client-to-LTInterface" style="stroke:#EC7211;stroke-width:3.125;"/><polygon fill="#EC7211" points="718.5313,591.6367,720.1528,581.5065,717.1948,586.6028,712.0985,583.6448,718.5313,591.6367" style="stroke:#EC7211;stroke-width:3.125;"/></g><!--MD5=[d2d1822ff9d41fe4a8f3f1046dfe8ffe]
link ORK to SimInterface--><g id="link_ORK_SimInterface"><path d="M634.3229,306.8971 C624.1146,312.0742 613.1563,317.7617 603.125,323.2096 C546.9688,353.7096 481.6146,392.6576 453.5521,409.5534 " fill="none" id="ORK-to-SimInterface" style="stroke:#EC7211;stroke-width:3.125;"/><polygon fill="#EC7211" points="449.0625,412.2617,459.2402,410.9712,453.5181,409.5645,454.9248,403.8424,449.0625,412.2617" style="stroke:#EC7211;stroke-width:3.125;"/></g><!--MD5=[ca0c59f53383e4beb1b6a7a01152653d]
link BC Simulator to SimDB--><g id="link_BC Simulator_SimDB"><path d="M326.5208,447.4492 C327.1042,481.4284 328.1042,539.0117 328.6979,572.9596 " fill="none" id="BC Simulator-SimDB" style="stroke:#EC7211;stroke-width:3.125;"/></g><!--MD5=[12f163473edd3d49424fe05ac584e05d]
link Website to SimInterface--><g id="link_Website_SimInterface"><path d="M145.1146,310.2721 C150.8958,312.1055 156.7708,313.6992 162.5,314.8763 C176.0625,317.6471 400.5104,314.7513 411.4583,323.2096 C436.3958,342.4805 440.0313,382.8659 440.0938,404.168 " fill="none" id="Website-to-SimInterface" style="stroke:#EC7211;stroke-width:3.125;"/><polygon fill="#EC7211" points="440.0313,409.3867,444.2781,400.0478,440.0759,404.1786,435.9451,399.9764,440.0313,409.3867" style="stroke:#EC7211;stroke-width:3.125;"/></g><!--MD5=[cbceba0bdb96703f089facd2f2cc9488]
link Website to VendorDB--><g id="link_Website_VendorDB"><path d="M97.7292,315.0846 C101.8229,337.3138 107.5625,368.5326 111.6458,390.7409 " fill="none" id="Website-VendorDB" style="stroke:#EC7211;stroke-width:3.125;"/></g><!--MD5=[9811bde88919bb0e7b7e853d4efa13f0]
link Browser to HTTP--><g id="link_Browser_HTTP"><path d="M320.0208,168.1471 C285.25,199.7513 229.4375,250.4492 204.0208,273.543 " fill="none" id="Browser-to-HTTP" style="stroke:#EC7211;stroke-width:3.125;"/><polygon fill="#EC7211" points="199.9167,277.2617,209.6595,274.0479,203.7739,273.7619,204.0598,267.8763,199.9167,277.2617" style="stroke:#EC7211;stroke-width:3.125;"/></g><!--MD5=[ef68b405950b292f1bc104b2431bef28]
link Browser to LTInterface2--><g id="link_Browser_LTInterface2"><path d="M372.0417,168.1263 C398.5,202.2513 442.2292,263.543 465.625,323.2096 C503.2396,419.1263 513.5104,544.793 515.9688,586.3138 " fill="none" id="Browser-to-LTInterface2" style="stroke:#EC7211;stroke-width:3.125;"/><polygon fill="#EC7211" points="516.2813,591.8138,519.9047,582.2158,515.9833,586.614,511.585,582.6925,516.2813,591.8138" style="stroke:#EC7211;stroke-width:3.125;"/></g><!--MD5=[ec9f9f09866c18f8e0b4d6bb658bccf7]
@startuml H4x2_CompDiagram
title H4x2 2.0 - Component Diagram
!include https://raw.githubusercontent.com/bschwarz/puml-themes/master/themes/aws-orange-light/puml-theme-aws-orange-light.puml

package "Docker" {
    [ORK] -> OrkInterface
    [LT Client]
    database "ORK SQlite" {
        [ORKdb]
    }
}

node "LT Server" {
    [LT Server] -Right-> LTInterface 
    [LT Server] -Left-> LTInterface2
}

node "BC Simulator" {    
    [BC Simulator] -> SimInterface 
    database "BC Simulator SQL" {
        [SimDB]
    }
}

node "Vendor"  {
    [Website] -> HTTP
    database "Vendor SQL" {
        [VendorDB]
    }
}

node "Client"{
    [Browser]
}


[ORK] - - [ORKdb]
[ORK] - - [LT Client]
[LT Client] - -> LTInterface
[ORK] - -> SimInterface
[BC Simulator] - - [SimDB]
[Website] - -> SimInterface
[Website] - - [VendorDB]
[Browser] - -> HTTP
[Browser] - -> LTInterface2

@enduml

@startuml H4x2_CompDiagram
title H4x2 2.0 - Component Diagram



skinparam backgroundColor transparent










skinparam defaultFontName       "Verdana"
skinparam defaultFontSize       12
skinparam dpi                   100
skinparam shadowing             false
skinparam roundcorner           8
skinparam ParticipantPadding    40
skinparam BoxPadding            40
skinparam Padding               5
skinparam ArrowColor            #4E5D6C
skinparam stereotype {
    CBackgroundColor #ffffff
    CBorderColor #cccccc
    ABackgroundColor #4a9a35
    ABorderColor #176702
    IBackgroundColor #da5b41
    IBorderColor #a7280e
    EBackgroundColor #f08e41
    EBorderColor #bd5b0e
    NBackgroundColor #338fc9
    NBorderColor #005c96
}
skinparam title {
	FontColor	                 #4E5D6C
	BorderColor	                 #FFFFFF
	FontSize	    	         20
	BorderRoundCorner            8
	BorderThickness 	         1
	BackgroundColor              #FFFFFF-#cccccc
}

skinparam legend {
	BackgroundColor #FFFFFF
	BorderColor #cccccc
	FontColor #abb6c2
}

skinparam swimlane {
	BorderColor #0073bb
	BorderThickness 2
	TitleBackgroundColor  #FFFFFF-#cccccc
	TitleFontColor #EC7211
}


skinparam activity {
		FontColor #FFF
	BorderColor #EC7211
	BackgroundColor #f08e41-#EC7211
	BarColor #1D8102
	StartColor #0073bb
	EndColor #0073bb
	DiamondBackgroundColor #ffffff
  	DiamondBorderColor #cccccc
  	DiamondFontColor #4E5D6C
}

skinparam participant {
		FontColor #FFF
	BorderColor #EC7211
	BackgroundColor #f08e41-#EC7211
	ParticipantBorderThickness 2
}

skinparam actor {
		FontColor #FFF
	BorderColor #EC7211
	BackgroundColor #f08e41-#EC7211
	FontColor #4E5D6C
}

skinparam arrow {
	Thickness 3
	Color #EC7211
	FontColor #4E5D6C
}

skinparam sequence {
	ArrowThickness 3
	BorderColor #EC7211
	TitleFontColor #EC7211
	BackgroundColor transparent
	StartColor #EC7211
	EndColor #EC7211
	BoxBackgroundColor transparent
	BoxBorderColor #4E5D6C
	BoxFontColor #4E5D6C
	DelayFontColor #4E5D6C
	LifeLineBorderColor #abb6c2
	LifeLineBorderThickness 2
	LifeLineBackgroundColor #bcc5ce
	GroupBorderColor #4E5D6C
	GroupFontColor #4E5D6C
	GroupHeaderFontColor #0073bb
	GroupBackgroundColor #FFFFFF
	GroupBodyBackgroundColor transparent
	GroupHeaderBackgroundColor transparent
	DividerBackgroundColor #4E5D6C
    DividerBorderColor #4E5D6C
    DividerBorderThickness 2
    DividerFontColor #abb6c2
	ReferenceBackgroundColor transparent
	ReferenceBorderColor #4E5D6C
	ReferenceFontColor #4E5D6C
	ReferenceHeaderFontColor #0073bb
	ReferenceHeaderBackgroundColor #FFFFFF
	StereotypeFontColor #FFF
}

skinparam partition {
	BorderColor #EC7211
	FontColor #EC7211
	BackgroundColor transparent
}

skinparam collections {
		FontColor #FFF
	BorderColor #EC7211
	BackgroundColor #f08e41-#EC7211
}

skinparam control {
		FontColor #FFF
	BorderColor #EC7211
	BackgroundColor #f08e41-#EC7211
	FontColor #4E5D6C
}

skinparam entity {
		FontColor #FFF
	BorderColor #EC7211
	BackgroundColor #f08e41-#EC7211
	FontColor #4E5D6C
}

skinparam boundary {
		FontColor #FFF
	BorderColor #EC7211
	BackgroundColor #f08e41-#EC7211
	FontColor #4E5D6C
}

skinparam agent {
	BackgroundColor #EC7211
	BorderColor #f08e41
	FontColor #4E5D6C
}

skinparam note {
	BorderThickness 1
	BackgroundColor #0073bb
	BorderColor #005c96
	FontColor #FFF
}

skinparam artifact {
	BackgroundColor #4E5D6C
	BorderColor #717d89
	FontColor #abb6c2
}

skinparam component {
		FontColor #FFF
	BorderColor #EC7211
	BackgroundColor #f08e41-#EC7211
}

skinparam interface {
	BackgroundColor  #a7280e
	BorderColor  #d13212
	FontColor #4E5D6C
}

skinparam storage {
	BackgroundColor #EC7211
  	BorderColor #bd5b0e
	FontColor #FFF
}

skinparam node {
	BackgroundColor  transparent
	BorderColor #abb6c2
	FontColor #abb6c2
}

skinparam cloud {
	BackgroundColor transparent
	BorderColor #4E5D6C
	FontColor #abb6c2
}

skinparam database {
		FontColor #FFF
	BorderColor #EC7211
	BackgroundColor #f08e41-#EC7211
	FontColor #4E5D6C
}

skinparam class {
		FontColor #FFF
	BorderColor #EC7211
	BackgroundColor #f08e41-#EC7211
	HeaderBackgroundColor #f08e41
	StereotypeFontColor #4E5D6C
	BorderThickness 1
	AttributeFontColor #FFF
	AttributeFontSize 11
}

skinparam object {
		FontColor #FFF
	BorderColor #EC7211
	BackgroundColor #f08e41-#EC7211
	StereotypeFontColor #4E5D6C
	BorderThickness 1
	AttributeFontColor #FFF
	AttributeFontSize 11
}

skinparam usecase {
		FontColor #FFF
	BorderColor #EC7211
	BackgroundColor #f08e41-#EC7211
	BorderThickness 2
	StereotypeFontColor #EC7211
}

skinparam rectangle {
	BackgroundColor transparent
	FontColor #4E5D6C
	BorderColor #4E5D6C
	BorderThickness 2
	StereotypeFontColor #abb6c2
}

skinparam package {
	BackgroundColor #FFFFFF
  	BorderColor #4E5D6C
	FontColor #4E5D6C
	BorderThickness 2
}

skinparam folder {
	BackgroundColor #ffffff
  	BorderColor #EC7211
	FontColor #EC7211
	BorderThickness 2
}

skinparam frame {
	BackgroundColor #ffffff
  	BorderColor #0073bb
	FontColor #0073bb
	BorderThickness 2
}

skinparam state {
		FontColor #FFF
	BorderColor #EC7211
	BackgroundColor #f08e41-#EC7211
	StartColor #0073bb
	EndColor #0073bb
	AttributeFontColor #4E5D6C
	AttributeFontSize 11
}

skinparam queue {
		FontColor #FFF
	BorderColor #EC7211
	BackgroundColor #f08e41-#EC7211
}

skinparam card {
	BackgroundColor #0073bb
	BorderColor #005c96
	FontColor #FFF
}

skinparam file {
	BackgroundColor #cccccc
	BorderColor #abb6c2
	FontColor #4E5D6C
}


skinparam stack {
		FontColor #FFF
	BorderColor #EC7211
	BackgroundColor #f08e41-#EC7211
}


package "Docker" {
    [ORK] -> OrkInterface
    [LT Client]
    database "ORK SQlite" {
        [ORKdb]
    }
}

node "LT Server" {
    [LT Server] -Right-> LTInterface 
    [LT Server] -Left-> LTInterface2
}

node "BC Simulator" {    
    [BC Simulator] -> SimInterface 
    database "BC Simulator SQL" {
        [SimDB]
    }
}

node "Vendor"  {
    [Website] -> HTTP
    database "Vendor SQL" {
        [VendorDB]
    }
}

node "Client"{
    [Browser]
}


[ORK] - - [ORKdb]
[ORK] - - [LT Client]
[LT Client] - -> LTInterface
[ORK] - -> SimInterface
[BC Simulator] - - [SimDB]
[Website] - -> SimInterface
[Website] - - [VendorDB]
[Browser] - -> HTTP
[Browser] - -> LTInterface2

@enduml

PlantUML version 1.2022.13(Sat Nov 19 13:22:17 UTC 2022)
(GPL source distribution)
Java Runtime: OpenJDK Runtime Environment
JVM: OpenJDK 64-Bit Server VM
Default Encoding: UTF-8
Language: en
Country: null
--></g></svg>