<?xml version="1.0" encoding="UTF-8" standalone="no"?><svg xmlns="http://www.w3.org/2000/svg" xmlns:xlink="http://www.w3.org/1999/xlink" contentStyleType="text/css" height="710.4167px" preserveAspectRatio="none" style="width:1001px;height:710px;" version="1.1" viewBox="0 0 1001 710" width="1001.0417px" zoomAndPan="magnify"><defs><linearGradient id="g10dkmj6wph7gn0" x1="50%" x2="50%" y1="0%" y2="100%"><stop offset="0%" stop-color="#FFFFFF"/><stop offset="100%" stop-color="#CCCCCC"/></linearGradient><linearGradient id="g10dkmj6wph7gn1" x1="50%" x2="50%" y1="0%" y2="100%"><stop offset="0%" stop-color="#F08E41"/><stop offset="100%" stop-color="#EC7211"/></linearGradient></defs><g><rect fill="url(#g10dkmj6wph7gn0)" height="45.0846" id="_title" rx="4.1667" ry="4.1667" style="stroke:#FFFFFF;stroke-width:1.0416666666666667;" width="392.7083" x="297.3333" y="5.2083"/><text fill="#4E5D6C" font-family="&quot;Verdana&quot;" font-size="20.8333" font-weight="bold" lengthAdjust="spacing" textLength="371.875" x="307.75" y="34.963">H4x2 2.0 - Component Diagram</text><!--MD5=[42591781c74864aa6bd8b9830e23a81c]
cluster Docker--><g id="cluster_Docker"><path d="M10.4167,214.8763 L69.7917,214.8763 A6.25,6.25 0 0 1 73.9583,219.043 L81.25,246.0938 L296.875,246.0938 A4.1667,4.1667 0 0 1 301.0417,250.2604 L301.0417,541.9596 A4.1667,4.1667 0 0 1 296.875,546.1263 L10.4167,546.1263 A4.1667,4.1667 0 0 1 6.25,541.9596 L6.25,219.043 A4.1667,4.1667 0 0 1 10.4167,214.8763 " fill="#FFFFFF" style="stroke:#4E5D6C;stroke-width:2.0833333333333335;"/><line style="stroke:#4E5D6C;stroke-width:2.0833333333333335;" x1="6.25" x2="81.25" y1="246.0938" y2="246.0938"/><text fill="#4E5D6C" font-family="&quot;Verdana&quot;" font-size="12.5" font-weight="bold" lengthAdjust="spacing" textLength="51.0417" x="15.625" y="233.7708">Docker</text></g><!--MD5=[8f4a659eee4b538ec240045c53921dab]
cluster ORK SQlite--><g id="cluster_ORK SQlite"><path d="M148.9583,399.2513 C148.9583,388.8346 212.5,388.8346 212.5,388.8346 C212.5,388.8346 276.0417,388.8346 276.0417,399.2513 L276.0417,510.7096 C276.0417,521.1263 212.5,521.1263 212.5,521.1263 C212.5,521.1263 148.9583,521.1263 148.9583,510.7096 L148.9583,399.2513 " fill="#FFFFFF" style="stroke:#4E5D6C;stroke-width:1.0416666666666667;"/><path d="M148.9583,399.2513 C148.9583,409.668 212.5,409.668 212.5,409.668 C212.5,409.668 276.0417,409.668 276.0417,399.2513 " fill="none" style="stroke:#4E5D6C;stroke-width:1.0416666666666667;"/><text fill="#4E5D6C" font-family="&quot;Verdana&quot;" font-size="12.5" font-weight="bold" lengthAdjust="spacing" textLength="78.125" x="173.4375" y="428.5624">ORK SQlite</text></g><!--MD5=[280c8eae03c0522eb380bb2709503172]
cluster LT Server--><g id="cluster_LT Server"><polygon fill="#FFFFFF" points="371.875,581.543,382.2917,571.1263,627.0833,571.1263,627.0833,682.5846,616.6667,693.0013,371.875,693.0013,371.875,581.543" style="stroke:#4E5D6C;stroke-width:1.0416666666666667;"/><line style="stroke:#4E5D6C;stroke-width:1.0416666666666667;" x1="616.6667" x2="627.0833" y1="581.543" y2="571.1263"/><line style="stroke:#4E5D6C;stroke-width:1.0416666666666667;" x1="371.875" x2="616.6667" y1="581.543" y2="581.543"/><line style="stroke:#4E5D6C;stroke-width:1.0416666666666667;" x1="616.6667" x2="616.6667" y1="581.543" y2="693.0013"/><text fill="#ABB6C2" font-family="&quot;Verdana&quot;" font-size="12.5" font-weight="bold" lengthAdjust="spacing" textLength="68.75" x="460.9375" y="601.4791">LT Server</text></g><!--MD5=[0456938ae9c5034085d91ff3a1927fab]
cluster BC Simulator--><g id="cluster_BC Simulator"><polygon fill="#FFFFFF" points="326.0417,341.9596,336.4583,331.543,684.375,331.543,684.375,535.7096,673.9583,546.1263,326.0417,546.1263,326.0417,341.9596" style="stroke:#4E5D6C;stroke-width:1.0416666666666667;"/><line style="stroke:#4E5D6C;stroke-width:1.0416666666666667;" x1="673.9583" x2="684.375" y1="341.9596" y2="331.543"/><line style="stroke:#4E5D6C;stroke-width:1.0416666666666667;" x1="326.0417" x2="673.9583" y1="341.9596" y2="341.9596"/><line style="stroke:#4E5D6C;stroke-width:1.0416666666666667;" x1="673.9583" x2="673.9583" y1="341.9596" y2="546.1263"/><text fill="#ABB6C2" font-family="&quot;Verdana&quot;" font-size="12.5" font-weight="bold" lengthAdjust="spacing" textLength="93.75" x="454.1667" y="361.8958">BC Simulator</text></g><!--MD5=[ec8f47c1020ef5a1b6393524e3c15df1]
cluster Simulator SQL--><g id="cluster_Simulator SQL"><path d="M529.1667,399.2513 C529.1667,388.8346 594.2708,388.8346 594.2708,388.8346 C594.2708,388.8346 659.375,388.8346 659.375,399.2513 L659.375,510.7096 C659.375,521.1263 594.2708,521.1263 594.2708,521.1263 C594.2708,521.1263 529.1667,521.1263 529.1667,510.7096 L529.1667,399.2513 " fill="#FFFFFF" style="stroke:#4E5D6C;stroke-width:1.0416666666666667;"/><path d="M529.1667,399.2513 C529.1667,409.668 594.2708,409.668 594.2708,409.668 C594.2708,409.668 659.375,409.668 659.375,399.2513 " fill="none" style="stroke:#4E5D6C;stroke-width:1.0416666666666667;"/><text fill="#4E5D6C" font-family="&quot;Verdana&quot;" font-size="12.5" font-weight="bold" lengthAdjust="spacing" textLength="103.125" x="542.7083" y="428.5624">Simulator SQL</text></g><!--MD5=[354434fd797e55d67bedb6bbd300fabf]
cluster Vendor--><g id="cluster_Vendor"><polygon fill="#FFFFFF" points="709.375,220.0846,719.7917,209.668,909.375,209.668,909.375,535.7096,898.9583,546.1263,709.375,546.1263,709.375,220.0846" style="stroke:#4E5D6C;stroke-width:1.0416666666666667;"/><line style="stroke:#4E5D6C;stroke-width:1.0416666666666667;" x1="898.9583" x2="909.375" y1="220.0846" y2="209.668"/><line style="stroke:#4E5D6C;stroke-width:1.0416666666666667;" x1="709.375" x2="898.9583" y1="220.0846" y2="220.0846"/><line style="stroke:#4E5D6C;stroke-width:1.0416666666666667;" x1="898.9583" x2="898.9583" y1="220.0846" y2="546.1263"/><text fill="#ABB6C2" font-family="&quot;Verdana&quot;" font-size="12.5" font-weight="bold" lengthAdjust="spacing" textLength="53.125" x="778.6458" y="240.0208">Vendor</text></g><!--MD5=[18a6e4be6fbd9ccf79db7dd422331565]
cluster Vendor SQL--><g id="cluster_Vendor SQL"><path d="M734.375,399.2513 C734.375,388.8346 809.375,388.8346 809.375,388.8346 C809.375,388.8346 884.375,388.8346 884.375,399.2513 L884.375,510.7096 C884.375,521.1263 809.375,521.1263 809.375,521.1263 C809.375,521.1263 734.375,521.1263 734.375,510.7096 L734.375,399.2513 " fill="#FFFFFF" style="stroke:#4E5D6C;stroke-width:1.0416666666666667;"/><path d="M734.375,399.2513 C734.375,409.668 809.375,409.668 809.375,409.668 C809.375,409.668 884.375,409.668 884.375,399.2513 " fill="none" style="stroke:#4E5D6C;stroke-width:1.0416666666666667;"/><text fill="#4E5D6C" font-family="&quot;Verdana&quot;" font-size="12.5" font-weight="bold" lengthAdjust="spacing" textLength="85.4167" x="766.6667" y="428.5624">Vendor SQL</text></g><!--MD5=[406b65fecc21e832f7a9b6ebadc6dce1]
cluster Client--><g id="cluster_Client"><polygon fill="#FFFFFF" points="843.75,73.2096,854.1667,62.793,981.25,62.793,981.25,174.2513,970.8333,184.668,843.75,184.668,843.75,73.2096" style="stroke:#4E5D6C;stroke-width:1.0416666666666667;"/><line style="stroke:#4E5D6C;stroke-width:1.0416666666666667;" x1="970.8333" x2="981.25" y1="73.2096" y2="62.793"/><line style="stroke:#4E5D6C;stroke-width:1.0416666666666667;" x1="843.75" x2="970.8333" y1="73.2096" y2="73.2096"/><line style="stroke:#4E5D6C;stroke-width:1.0416666666666667;" x1="970.8333" x2="970.8333" y1="73.2096" y2="184.668"/><text fill="#ABB6C2" font-family="&quot;Verdana&quot;" font-size="12.5" font-weight="bold" lengthAdjust="spacing" textLength="42.7083" x="886.9792" y="93.1458">Client</text></g><!--MD5=[eb7a7b98a14a4c33f042003687ae1f8f]
entity ORK--><g id="elem_ORK"><rect fill="url(#g10dkmj6wph7gn1)" height="56.2174" rx="4.1667" ry="4.1667" style="stroke:#EC7211;stroke-width:1.0416666666666667;" width="77.0833" x="152.0833" y="258.6263"/><rect fill="url(#g10dkmj6wph7gn1)" height="10.4167" style="stroke:#EC7211;stroke-width:1.0416666666666667;" width="15.625" x="208.3333" y="263.8346"/><rect fill="url(#g10dkmj6wph7gn1)" height="2.0833" style="stroke:#EC7211;stroke-width:1.0416666666666667;" width="4.1667" x="206.25" y="265.918"/><rect fill="url(#g10dkmj6wph7gn1)" height="2.0833" style="stroke:#EC7211;stroke-width:1.0416666666666667;" width="4.1667" x="206.25" y="270.0846"/><text fill="#FFFFFF" font-family="&quot;Verdana&quot;" font-size="12.5" lengthAdjust="spacing" textLength="25" x="172.9167" y="296.2708">ORK</text></g><!--MD5=[d19b759a6954dfc739986b280c211818]
entity OrkInterface--><g id="elem_OrkInterface"><ellipse cx="275" cy="286.7513" fill="#A7280E" rx="8.3333" ry="8.3333" style="stroke:#D13212;stroke-width:1.0416666666666667;"/><text fill="#4E5D6C" font-family="&quot;Verdana&quot;" font-size="12.5" lengthAdjust="spacing" textLength="80.2083" x="234.8958" y="321.2708">OrkInterface</text></g><!--MD5=[e4b66531d47a5049cff93ea38632383b]
entity LT Client--><g id="elem_LT Client"><rect fill="url(#g10dkmj6wph7gn1)" height="56.2174" rx="4.1667" ry="4.1667" style="stroke:#EC7211;stroke-width:1.0416666666666667;" width="106.25" x="22.9167" y="448.2096"/><rect fill="url(#g10dkmj6wph7gn1)" height="10.4167" style="stroke:#EC7211;stroke-width:1.0416666666666667;" width="15.625" x="108.3333" y="453.418"/><rect fill="url(#g10dkmj6wph7gn1)" height="2.0833" style="stroke:#EC7211;stroke-width:1.0416666666666667;" width="4.1667" x="106.25" y="455.5013"/><rect fill="url(#g10dkmj6wph7gn1)" height="2.0833" style="stroke:#EC7211;stroke-width:1.0416666666666667;" width="4.1667" x="106.25" y="459.668"/><text fill="#FFFFFF" font-family="&quot;Verdana&quot;" font-size="12.5" lengthAdjust="spacing" textLength="54.1667" x="43.75" y="485.8541">LT Client</text></g><!--MD5=[8c398adf8eb74f343b239aaa6617ff5f]
entity ORKdb--><g id="elem_ORKdb"><rect fill="url(#g10dkmj6wph7gn1)" height="56.2174" rx="4.1667" ry="4.1667" style="stroke:#EC7211;stroke-width:1.0416666666666667;" width="93.75" x="165.625" y="448.2096"/><rect fill="url(#g10dkmj6wph7gn1)" height="10.4167" style="stroke:#EC7211;stroke-width:1.0416666666666667;" width="15.625" x="238.5417" y="453.418"/><rect fill="url(#g10dkmj6wph7gn1)" height="2.0833" style="stroke:#EC7211;stroke-width:1.0416666666666667;" width="4.1667" x="236.4583" y="455.5013"/><rect fill="url(#g10dkmj6wph7gn1)" height="2.0833" style="stroke:#EC7211;stroke-width:1.0416666666666667;" width="4.1667" x="236.4583" y="459.668"/><text fill="#FFFFFF" font-family="&quot;Verdana&quot;" font-size="12.5" lengthAdjust="spacing" textLength="41.6667" x="186.4583" y="485.8541">ORKdb</text></g><!--MD5=[1fb25165e31d08c10665e6980999b281]
entity LT Server--><g id="elem_LT Server"><rect fill="url(#g10dkmj6wph7gn1)" height="56.2174" rx="4.1667" ry="4.1667" style="stroke:#EC7211;stroke-width:1.0416666666666667;" width="111.4583" x="499.4792" y="620.0846"/><rect fill="url(#g10dkmj6wph7gn1)" height="10.4167" style="stroke:#EC7211;stroke-width:1.0416666666666667;" width="15.625" x="590.1042" y="625.293"/><rect fill="url(#g10dkmj6wph7gn1)" height="2.0833" style="stroke:#EC7211;stroke-width:1.0416666666666667;" width="4.1667" x="588.0208" y="627.3763"/><rect fill="url(#g10dkmj6wph7gn1)" height="2.0833" style="stroke:#EC7211;stroke-width:1.0416666666666667;" width="4.1667" x="588.0208" y="631.543"/><text fill="#FFFFFF" font-family="&quot;Verdana&quot;" font-size="12.5" lengthAdjust="spacing" textLength="59.375" x="520.3125" y="657.7291">LT Server</text></g><!--MD5=[5f192a9c10f166b170302bd318832683]
entity LTInterface--><g id="elem_LTInterface"><ellipse cx="397.9167" cy="648.2096" fill="#A7280E" rx="8.3333" ry="8.3333" style="stroke:#D13212;stroke-width:1.0416666666666667;"/><text fill="#4E5D6C" font-family="&quot;Verdana&quot;" font-size="12.5" lengthAdjust="spacing" textLength="71.875" x="361.9792" y="682.7291">LTInterface</text></g><!--MD5=[37ffc94a15ca37c8c12b6b0c8c7d5684]
entity LTInterface2--><g id="elem_LTInterface2"><ellipse cx="453.125" cy="648.2096" fill="#A7280E" rx="8.3333" ry="8.3333" style="stroke:#D13212;stroke-width:1.0416666666666667;"/><text fill="#4E5D6C" font-family="&quot;Verdana&quot;" font-size="12.5" lengthAdjust="spacing" textLength="80.2083" x="413.0208" y="682.7291">LTInterface2</text></g><!--MD5=[b0a41efd5b725d07d4c7f118f8908e99]
entity Simulator--><g id="elem_Simulator"><rect fill="url(#g10dkmj6wph7gn1)" height="56.2174" rx="4.1667" ry="4.1667" style="stroke:#EC7211;stroke-width:1.0416666666666667;" width="113.5417" x="343.2292" y="448.2096"/><rect fill="url(#g10dkmj6wph7gn1)" height="10.4167" style="stroke:#EC7211;stroke-width:1.0416666666666667;" width="15.625" x="435.9375" y="453.418"/><rect fill="url(#g10dkmj6wph7gn1)" height="2.0833" style="stroke:#EC7211;stroke-width:1.0416666666666667;" width="4.1667" x="433.8542" y="455.5013"/><rect fill="url(#g10dkmj6wph7gn1)" height="2.0833" style="stroke:#EC7211;stroke-width:1.0416666666666667;" width="4.1667" x="433.8542" y="459.668"/><text fill="#FFFFFF" font-family="&quot;Verdana&quot;" font-size="12.5" lengthAdjust="spacing" textLength="61.4583" x="364.0625" y="485.8541">Simulator</text></g><!--MD5=[311810dfabf7803e319950b9fe3c458e]
entity SimInterface--><g id="elem_SimInterface"><ellipse cx="503.125" cy="476.3346" fill="#A7280E" rx="8.3333" ry="8.3333" style="stroke:#D13212;stroke-width:1.0416666666666667;"/><text fill="#4E5D6C" font-family="&quot;Verdana&quot;" font-size="12.5" lengthAdjust="spacing" textLength="81.25" x="462.5" y="510.8541">SimInterface</text></g><!--MD5=[1cf1d52701de40d62e002fc611f86ee9]
entity SimDB--><g id="elem_SimDB"><rect fill="url(#g10dkmj6wph7gn1)" height="56.2174" rx="4.1667" ry="4.1667" style="stroke:#EC7211;stroke-width:1.0416666666666667;" width="92.7083" x="549.4792" y="448.2096"/><rect fill="url(#g10dkmj6wph7gn1)" height="10.4167" style="stroke:#EC7211;stroke-width:1.0416666666666667;" width="15.625" x="621.3542" y="453.418"/><rect fill="url(#g10dkmj6wph7gn1)" height="2.0833" style="stroke:#EC7211;stroke-width:1.0416666666666667;" width="4.1667" x="619.2708" y="455.5013"/><rect fill="url(#g10dkmj6wph7gn1)" height="2.0833" style="stroke:#EC7211;stroke-width:1.0416666666666667;" width="4.1667" x="619.2708" y="459.668"/><text fill="#FFFFFF" font-family="&quot;Verdana&quot;" font-size="12.5" lengthAdjust="spacing" textLength="40.625" x="570.3125" y="485.8541">SimDB</text></g><!--MD5=[267c1c121543e29b214c7e2be8e6d7c3]
entity Website--><g id="elem_Website"><rect fill="url(#g10dkmj6wph7gn1)" height="56.2174" rx="4.1667" ry="4.1667" style="stroke:#EC7211;stroke-width:1.0416666666666667;" width="104.1667" x="730.2083" y="258.6263"/><rect fill="url(#g10dkmj6wph7gn1)" height="10.4167" style="stroke:#EC7211;stroke-width:1.0416666666666667;" width="15.625" x="813.5417" y="263.8346"/><rect fill="url(#g10dkmj6wph7gn1)" height="2.0833" style="stroke:#EC7211;stroke-width:1.0416666666666667;" width="4.1667" x="811.4583" y="265.918"/><rect fill="url(#g10dkmj6wph7gn1)" height="2.0833" style="stroke:#EC7211;stroke-width:1.0416666666666667;" width="4.1667" x="811.4583" y="270.0846"/><text fill="#FFFFFF" font-family="&quot;Verdana&quot;" font-size="12.5" lengthAdjust="spacing" textLength="52.0833" x="751.0417" y="296.2708">Website</text></g><!--MD5=[96f7e1299d4a43069e6ed32352fcac20]
entity HTTP--><g id="elem_HTTP"><ellipse cx="880.2083" cy="286.7513" fill="#A7280E" rx="8.3333" ry="8.3333" style="stroke:#D13212;stroke-width:1.0416666666666667;"/><text fill="#4E5D6C" font-family="&quot;Verdana&quot;" font-size="12.5" lengthAdjust="spacing" textLength="32.2917" x="864.0625" y="321.2708">HTTP</text></g><!--MD5=[4b2cb6088e4c746f5999c8caa4e32af7]
entity VendorDB--><g id="elem_VendorDB"><rect fill="url(#g10dkmj6wph7gn1)" height="56.2174" rx="4.1667" ry="4.1667" style="stroke:#EC7211;stroke-width:1.0416666666666667;" width="116.6667" x="751.0417" y="448.2096"/><rect fill="url(#g10dkmj6wph7gn1)" height="10.4167" style="stroke:#EC7211;stroke-width:1.0416666666666667;" width="15.625" x="846.875" y="453.418"/><rect fill="url(#g10dkmj6wph7gn1)" height="2.0833" style="stroke:#EC7211;stroke-width:1.0416666666666667;" width="4.1667" x="844.7917" y="455.5013"/><rect fill="url(#g10dkmj6wph7gn1)" height="2.0833" style="stroke:#EC7211;stroke-width:1.0416666666666667;" width="4.1667" x="844.7917" y="459.668"/><text fill="#FFFFFF" font-family="&quot;Verdana&quot;" font-size="12.5" lengthAdjust="spacing" textLength="64.5833" x="771.875" y="485.8541">VendorDB</text></g><!--MD5=[e9dede37b31fdda9664526f66258b036]
entity Browser--><g id="elem_Browser"><rect fill="url(#g10dkmj6wph7gn1)" height="56.2174" rx="4.1667" ry="4.1667" style="stroke:#EC7211;stroke-width:1.0416666666666667;" width="104.1667" x="860.4167" y="111.7513"/><rect fill="url(#g10dkmj6wph7gn1)" height="10.4167" style="stroke:#EC7211;stroke-width:1.0416666666666667;" width="15.625" x="943.75" y="116.9596"/><rect fill="url(#g10dkmj6wph7gn1)" height="2.0833" style="stroke:#EC7211;stroke-width:1.0416666666666667;" width="4.1667" x="941.6667" y="119.043"/><rect fill="url(#g10dkmj6wph7gn1)" height="2.0833" style="stroke:#EC7211;stroke-width:1.0416666666666667;" width="4.1667" x="941.6667" y="123.2096"/><text fill="#FFFFFF" font-family="&quot;Verdana&quot;" font-size="12.5" lengthAdjust="spacing" textLength="52.0833" x="881.25" y="149.3958">Browser</text></g><!--MD5=[e999bb269f538b02f2474fed934351aa]
entity BC Simulator--><g id="elem_BC Simulator"><rect fill="url(#g10dkmj6wph7gn1)" height="56.2174" rx="4.1667" ry="4.1667" style="stroke:#EC7211;stroke-width:1.0416666666666667;" width="134.375" x="528.6458" y="258.6263"/><rect fill="url(#g10dkmj6wph7gn1)" height="10.4167" style="stroke:#EC7211;stroke-width:1.0416666666666667;" width="15.625" x="642.1875" y="263.8346"/><rect fill="url(#g10dkmj6wph7gn1)" height="2.0833" style="stroke:#EC7211;stroke-width:1.0416666666666667;" width="4.1667" x="640.1042" y="265.918"/><rect fill="url(#g10dkmj6wph7gn1)" height="2.0833" style="stroke:#EC7211;stroke-width:1.0416666666666667;" width="4.1667" x="640.1042" y="270.0846"/><text fill="#FFFFFF" font-family="&quot;Verdana&quot;" font-size="12.5" lengthAdjust="spacing" textLength="82.2917" x="549.4792" y="296.2708">BC Simulator</text></g><!--MD5=[32cfa1a2f48334eb4456d9ea308f4fbf]
link ORK to OrkInterface--><g id="link_ORK_OrkInterface"><path d="M229.1875,286.7513 C239.4479,286.7513 249.7083,286.7513 259.9688,286.7513 " fill="none" id="ORK-to-OrkInterface" style="stroke:#EC7211;stroke-width:3.125;"/><polygon fill="#EC7211" points="265.3333,286.7513,255.9583,282.5846,260.125,286.7513,255.9583,290.918,265.3333,286.7513" style="stroke:#EC7211;stroke-width:3.125;"/></g><!--MD5=[3ebcd83e824add30d8149998b15c362d]
link LT Server to LTInterface--><g id="link_LT Server_LTInterface"><path d="M537.6354,619.793 C524.4167,600.8138 504.625,576.8346 481.25,562.793 C466.6771,554.043 460.125,556.7201 443.2292,558.6263 C434.9688,559.5534 431.1146,557.168 425,562.793 C405.0833,581.1263 399.7292,614.0013 398.3438,633.1784 " fill="none" id="LT Server-to-LTInterface" style="stroke:#EC7211;stroke-width:3.125;"/><polygon fill="#EC7211" points="398.0313,638.6576,402.7275,629.5363,398.3292,633.4577,394.4078,629.0595,398.0313,638.6576" style="stroke:#EC7211;stroke-width:3.125;"/></g><!--MD5=[0d1d478abdaf5a2981b183da4ca1d5b1]
reverse link LTInterface2 to LT Server--><g id="link_LTInterface2_LT Server"><path d="M468.1146,648.2096 C478.4688,648.2096 488.8333,648.2096 499.1979,648.2096 " fill="none" id="LTInterface2-backto-LT Server" style="stroke:#EC7211;stroke-width:3.125;"/><polygon fill="#EC7211" points="462.6979,648.2096,472.0729,652.3763,467.9063,648.2096,472.0729,644.043,462.6979,648.2096" style="stroke:#EC7211;stroke-width:3.125;"/></g><!--MD5=[97e76d69783fb95ab009a7101d2c98b0]
link Simulator to SimInterface--><g id="link_Simulator_SimInterface"><path d="M456.8021,476.3346 C467.2813,476.3346 477.7604,476.3346 488.2396,476.3346 " fill="none" id="Simulator-to-SimInterface" style="stroke:#EC7211;stroke-width:3.125;"/><polygon fill="#EC7211" points="493.7188,476.3346,484.3438,472.168,488.5104,476.3346,484.3438,480.5013,493.7188,476.3346" style="stroke:#EC7211;stroke-width:3.125;"/></g><!--MD5=[8a5ecb3d959917ba2b04b4f0f68d0089]
link Website to HTTP--><g id="link_Website_HTTP"><path d="M834.6875,286.7513 C844.8854,286.7513 855.0833,286.7513 865.2813,286.7513 " fill="none" id="Website-to-HTTP" style="stroke:#EC7211;stroke-width:3.125;"/><polygon fill="#EC7211" points="870.6042,286.7513,861.2292,282.5846,865.3958,286.7513,861.2292,290.918,870.6042,286.7513" style="stroke:#EC7211;stroke-width:3.125;"/></g><!--MD5=[16e2cfd8564ee3f0f65f6f82effd7ee9]
link ORK to ORKdb--><g id="link_ORK_ORKdb"><path d="M193.8021,315.0534 C197.9583,350.6055 205.1667,412.4284 209.3125,447.9909 " fill="none" id="ORK-ORKdb" style="stroke:#EC7211;stroke-width:3.125;"/></g><!--MD5=[28c1b6c1dcd466ec5055d6821178064b]
link ORK to LT Client--><g id="link_ORK_LT Client"><path d="M156.2292,314.8867 C153.625,317.5638 151.1563,320.3555 148.9583,323.2096 C118.75,362.4076 96.6458,416.1263 85.1146,448.1159 " fill="none" id="ORK-LT Client" style="stroke:#EC7211;stroke-width:3.125;"/></g><!--MD5=[7b8c68e2b3bec9d25f4d447ba11381c9]
link LT Client to LTInterface--><g id="link_LT Client_LTInterface"><path d="M96.5208,504.668 C109.9271,520.9596 128.6875,541.0326 148.9583,554.4596 C228.5,607.1159 342.0208,635.1992 382.6979,644.0534 " fill="none" id="LT Client-to-LTInterface" style="stroke:#EC7211;stroke-width:3.125;"/><polygon fill="#EC7211" points="388.1563,645.2201,379.8576,639.1882,383.0627,644.1328,378.118,647.3379,388.1563,645.2201" style="stroke:#EC7211;stroke-width:3.125;"/></g><!--MD5=[d2d1822ff9d41fe4a8f3f1046dfe8ffe]
link ORK to SimInterface--><g id="link_ORK_SimInterface"><path d="M229.1875,308.8867 C234.9792,311.3034 240.9792,313.418 246.875,314.8763 C259.1875,317.918 465.3958,314.918 475,323.2096 C515.5625,358.2305 509.9688,431.0846 505.5417,461.4909 " fill="none" id="ORK-to-SimInterface" style="stroke:#EC7211;stroke-width:3.125;"/><polygon fill="#EC7211" points="504.7396,466.6576,510.3059,458.0397,505.545,461.5119,502.0728,456.751,504.7396,466.6576" style="stroke:#EC7211;stroke-width:3.125;"/></g><!--MD5=[ca0c59f53383e4beb1b6a7a01152653d]
link BC Simulator to SimDB--><g id="link_BC Simulator_SimDB"><path d="M595.8333,315.0534 C595.8333,350.6055 595.8333,412.4284 595.8333,447.9909 " fill="none" id="BC Simulator-SimDB" style="stroke:#EC7211;stroke-width:3.125;"/></g><!--MD5=[12f163473edd3d49424fe05ac584e05d]
link Website to SimInterface--><g id="link_Website_SimInterface"><path d="M730.0313,303.9909 C714.4792,308.2201 697.3021,312.3034 681.25,314.8763 C665,317.4805 545.7604,312.4076 533.3333,323.2096 C492.9479,358.3034 497.0625,430.5742 500.9271,461.1471 " fill="none" id="Website-to-SimInterface" style="stroke:#EC7211;stroke-width:3.125;"/><polygon fill="#EC7211" points="501.6771,466.6784,504.5477,456.829,500.978,461.5172,496.2898,457.9475,501.6771,466.6784" style="stroke:#EC7211;stroke-width:3.125;"/></g><!--MD5=[cbceba0bdb96703f089facd2f2cc9488]
link Website to VendorDB--><g id="link_Website_VendorDB"><path d="M786.2292,315.0534 C791.3646,350.6055 800.2917,412.4284 805.4271,447.9909 " fill="none" id="Website-VendorDB" style="stroke:#EC7211;stroke-width:3.125;"/></g><!--MD5=[9811bde88919bb0e7b7e853d4efa13f0]
link Browser to HTTP--><g id="link_Browser_HTTP"><path d="M906.4271,168.1471 C899.5208,199.0951 888.5417,248.3659 883.25,272.0742 " fill="none" id="Browser-to-HTTP" style="stroke:#EC7211;stroke-width:3.125;"/><polygon fill="#EC7211" points="882.0938,277.2617,888.2,269.0176,883.2268,272.1781,880.0663,267.2048,882.0938,277.2617" style="stroke:#EC7211;stroke-width:3.125;"/></g><!--MD5=[ef68b405950b292f1bc104b2431bef28]
link Browser to LTInterface2--><g id="link_Browser_LTInterface2"><path d="M921.4375,168.1263 C944.125,242.9492 994.6667,453.0013 884.375,554.4596 C867.8854,569.6263 499.2813,549.5117 481.25,562.793 C459.0521,579.1367 454.1354,613.7201 453.1979,633.1576 " fill="none" id="Browser-to-LTInterface2" style="stroke:#EC7211;stroke-width:3.125;"/><polygon fill="#EC7211" points="453.0104,638.668,457.4959,629.4412,453.1889,633.4627,449.1674,629.1557,453.0104,638.668" style="stroke:#EC7211;stroke-width:3.125;"/></g><!--MD5=[8e6be06232094a8d289a2eb13e5e66d1]
@startuml H4x2_CompDiagram
title H4x2 2.0 - Component Diagram
!include https://raw.githubusercontent.com/bschwarz/puml-themes/master/themes/aws-orange-light/puml-theme-aws-orange-light.puml

package "Docker" {
    [ORK] -> OrkInterface
    [LT Client]
    database "ORK SQlite" {
        [ORKdb]
    }
}

node "LT Server" {
    [LT Server] -Right-> LTInterface 
    [LT Server] -Left-> LTInterface2
}

node "BC Simulator" {    
    [Simulator] -> SimInterface 
    database "Simulator SQL" {
        [SimDB]
    }
}

node "Vendor"  {
    [Website] -> HTTP
    database "Vendor SQL" {
        [VendorDB]
    }
}

node "Client"{
    [Browser]
}


[ORK] - - [ORKdb]
[ORK] - - [LT Client]
[LT Client] - -> LTInterface
[ORK] - -> SimInterface
[BC Simulator] - - [SimDB]
[Website] - -> SimInterface
[Website] - - [VendorDB]
[Browser] - -> HTTP
[Browser] - -> LTInterface2

@enduml

@startuml H4x2_CompDiagram
title H4x2 2.0 - Component Diagram



skinparam backgroundColor transparent










skinparam defaultFontName       "Verdana"
skinparam defaultFontSize       12
skinparam dpi                   100
skinparam shadowing             false
skinparam roundcorner           8
skinparam ParticipantPadding    40
skinparam BoxPadding            40
skinparam Padding               5
skinparam ArrowColor            #4E5D6C
skinparam stereotype {
    CBackgroundColor #ffffff
    CBorderColor #cccccc
    ABackgroundColor #4a9a35
    ABorderColor #176702
    IBackgroundColor #da5b41
    IBorderColor #a7280e
    EBackgroundColor #f08e41
    EBorderColor #bd5b0e
    NBackgroundColor #338fc9
    NBorderColor #005c96
}
skinparam title {
	FontColor	                 #4E5D6C
	BorderColor	                 #FFFFFF
	FontSize	    	         20
	BorderRoundCorner            8
	BorderThickness 	         1
	BackgroundColor              #FFFFFF-#cccccc
}

skinparam legend {
	BackgroundColor #FFFFFF
	BorderColor #cccccc
	FontColor #abb6c2
}

skinparam swimlane {
	BorderColor #0073bb
	BorderThickness 2
	TitleBackgroundColor  #FFFFFF-#cccccc
	TitleFontColor #EC7211
}


skinparam activity {
		FontColor #FFF
	BorderColor #EC7211
	BackgroundColor #f08e41-#EC7211
	BarColor #1D8102
	StartColor #0073bb
	EndColor #0073bb
	DiamondBackgroundColor #ffffff
  	DiamondBorderColor #cccccc
  	DiamondFontColor #4E5D6C
}

skinparam participant {
		FontColor #FFF
	BorderColor #EC7211
	BackgroundColor #f08e41-#EC7211
	ParticipantBorderThickness 2
}

skinparam actor {
		FontColor #FFF
	BorderColor #EC7211
	BackgroundColor #f08e41-#EC7211
	FontColor #4E5D6C
}

skinparam arrow {
	Thickness 3
	Color #EC7211
	FontColor #4E5D6C
}

skinparam sequence {
	ArrowThickness 3
	BorderColor #EC7211
	TitleFontColor #EC7211
	BackgroundColor transparent
	StartColor #EC7211
	EndColor #EC7211
	BoxBackgroundColor transparent
	BoxBorderColor #4E5D6C
	BoxFontColor #4E5D6C
	DelayFontColor #4E5D6C
	LifeLineBorderColor #abb6c2
	LifeLineBorderThickness 2
	LifeLineBackgroundColor #bcc5ce
	GroupBorderColor #4E5D6C
	GroupFontColor #4E5D6C
	GroupHeaderFontColor #0073bb
	GroupBackgroundColor #FFFFFF
	GroupBodyBackgroundColor transparent
	GroupHeaderBackgroundColor transparent
	DividerBackgroundColor #4E5D6C
    DividerBorderColor #4E5D6C
    DividerBorderThickness 2
    DividerFontColor #abb6c2
	ReferenceBackgroundColor transparent
	ReferenceBorderColor #4E5D6C
	ReferenceFontColor #4E5D6C
	ReferenceHeaderFontColor #0073bb
	ReferenceHeaderBackgroundColor #FFFFFF
	StereotypeFontColor #FFF
}

skinparam partition {
	BorderColor #EC7211
	FontColor #EC7211
	BackgroundColor transparent
}

skinparam collections {
		FontColor #FFF
	BorderColor #EC7211
	BackgroundColor #f08e41-#EC7211
}

skinparam control {
		FontColor #FFF
	BorderColor #EC7211
	BackgroundColor #f08e41-#EC7211
	FontColor #4E5D6C
}

skinparam entity {
		FontColor #FFF
	BorderColor #EC7211
	BackgroundColor #f08e41-#EC7211
	FontColor #4E5D6C
}

skinparam boundary {
		FontColor #FFF
	BorderColor #EC7211
	BackgroundColor #f08e41-#EC7211
	FontColor #4E5D6C
}

skinparam agent {
	BackgroundColor #EC7211
	BorderColor #f08e41
	FontColor #4E5D6C
}

skinparam note {
	BorderThickness 1
	BackgroundColor #0073bb
	BorderColor #005c96
	FontColor #FFF
}

skinparam artifact {
	BackgroundColor #4E5D6C
	BorderColor #717d89
	FontColor #abb6c2
}

skinparam component {
		FontColor #FFF
	BorderColor #EC7211
	BackgroundColor #f08e41-#EC7211
}

skinparam interface {
	BackgroundColor  #a7280e
	BorderColor  #d13212
	FontColor #4E5D6C
}

skinparam storage {
	BackgroundColor #EC7211
  	BorderColor #bd5b0e
	FontColor #FFF
}

skinparam node {
	BackgroundColor  transparent
	BorderColor #abb6c2
	FontColor #abb6c2
}

skinparam cloud {
	BackgroundColor transparent
	BorderColor #4E5D6C
	FontColor #abb6c2
}

skinparam database {
		FontColor #FFF
	BorderColor #EC7211
	BackgroundColor #f08e41-#EC7211
	FontColor #4E5D6C
}

skinparam class {
		FontColor #FFF
	BorderColor #EC7211
	BackgroundColor #f08e41-#EC7211
	HeaderBackgroundColor #f08e41
	StereotypeFontColor #4E5D6C
	BorderThickness 1
	AttributeFontColor #FFF
	AttributeFontSize 11
}

skinparam object {
		FontColor #FFF
	BorderColor #EC7211
	BackgroundColor #f08e41-#EC7211
	StereotypeFontColor #4E5D6C
	BorderThickness 1
	AttributeFontColor #FFF
	AttributeFontSize 11
}

skinparam usecase {
		FontColor #FFF
	BorderColor #EC7211
	BackgroundColor #f08e41-#EC7211
	BorderThickness 2
	StereotypeFontColor #EC7211
}

skinparam rectangle {
	BackgroundColor transparent
	FontColor #4E5D6C
	BorderColor #4E5D6C
	BorderThickness 2
	StereotypeFontColor #abb6c2
}

skinparam package {
	BackgroundColor #FFFFFF
  	BorderColor #4E5D6C
	FontColor #4E5D6C
	BorderThickness 2
}

skinparam folder {
	BackgroundColor #ffffff
  	BorderColor #EC7211
	FontColor #EC7211
	BorderThickness 2
}

skinparam frame {
	BackgroundColor #ffffff
  	BorderColor #0073bb
	FontColor #0073bb
	BorderThickness 2
}

skinparam state {
		FontColor #FFF
	BorderColor #EC7211
	BackgroundColor #f08e41-#EC7211
	StartColor #0073bb
	EndColor #0073bb
	AttributeFontColor #4E5D6C
	AttributeFontSize 11
}

skinparam queue {
		FontColor #FFF
	BorderColor #EC7211
	BackgroundColor #f08e41-#EC7211
}

skinparam card {
	BackgroundColor #0073bb
	BorderColor #005c96
	FontColor #FFF
}

skinparam file {
	BackgroundColor #cccccc
	BorderColor #abb6c2
	FontColor #4E5D6C
}


skinparam stack {
		FontColor #FFF
	BorderColor #EC7211
	BackgroundColor #f08e41-#EC7211
}


package "Docker" {
    [ORK] -> OrkInterface
    [LT Client]
    database "ORK SQlite" {
        [ORKdb]
    }
}

node "LT Server" {
    [LT Server] -Right-> LTInterface 
    [LT Server] -Left-> LTInterface2
}

node "BC Simulator" {    
    [Simulator] -> SimInterface 
    database "Simulator SQL" {
        [SimDB]
    }
}

node "Vendor"  {
    [Website] -> HTTP
    database "Vendor SQL" {
        [VendorDB]
    }
}

node "Client"{
    [Browser]
}


[ORK] - - [ORKdb]
[ORK] - - [LT Client]
[LT Client] - -> LTInterface
[ORK] - -> SimInterface
[BC Simulator] - - [SimDB]
[Website] - -> SimInterface
[Website] - - [VendorDB]
[Browser] - -> HTTP
[Browser] - -> LTInterface2

@enduml

PlantUML version 1.2022.13(Sat Nov 19 13:22:17 UTC 2022)
(GPL source distribution)
Java Runtime: OpenJDK Runtime Environment
JVM: OpenJDK 64-Bit Server VM
Default Encoding: UTF-8
Language: en
Country: null
--></g></svg>